<mxfile host="app.diagrams.net" modified="2022-04-17T07:42:31.020Z" agent="5.0 (X11; Linux x86_64) AppleWebKit/537.36 (KHTML, like Gecko) Chrome/99.0.4844.82 Safari/537.36" etag="oog1tyGm4DwxDPmhKSey" version="17.4.5" type="github">
  <diagram id="A-FcC_puE7X3GomjShwd" name="第 1 页">
    <mxGraphModel dx="1036" dy="557" grid="0" gridSize="10" guides="1" tooltips="1" connect="1" arrows="1" fold="1" page="1" pageScale="1" pageWidth="1169" pageHeight="827" math="0" shadow="0">
      <root>
        <mxCell id="0" />
        <mxCell id="1" parent="0" />
        <mxCell id="XM-I5mUfjcm3TLjFvyeR-1" value="&lt;font style=&quot;font-size: 11px ; line-height: 1.2&quot;&gt;:审核界面&lt;/font&gt;" style="shape=umlLifeline;perimeter=lifelinePerimeter;whiteSpace=wrap;html=1;container=1;collapsible=0;recursiveResize=0;outlineConnect=0;rounded=1;shadow=0;comic=0;labelBackgroundColor=none;strokeWidth=1;fontFamily=Verdana;fontSize=12;align=center;" vertex="1" parent="1">
          <mxGeometry x="344" y="207" width="100" height="338" as="geometry" />
        </mxCell>
        <mxCell id="XM-I5mUfjcm3TLjFvyeR-2" value="" style="html=1;points=[];perimeter=orthogonalPerimeter;rounded=0;shadow=0;comic=0;labelBackgroundColor=none;strokeWidth=1;fontFamily=Verdana;fontSize=12;align=center;" vertex="1" parent="XM-I5mUfjcm3TLjFvyeR-1">
          <mxGeometry x="45" y="142" width="10" height="161" as="geometry" />
        </mxCell>
        <mxCell id="XM-I5mUfjcm3TLjFvyeR-3" value=":DataBase" style="shape=umlLifeline;perimeter=lifelinePerimeter;whiteSpace=wrap;html=1;container=1;collapsible=0;recursiveResize=0;outlineConnect=0;rounded=1;shadow=0;comic=0;labelBackgroundColor=none;strokeWidth=1;fontFamily=Verdana;fontSize=12;align=center;" vertex="1" parent="1">
          <mxGeometry x="504" y="207" width="100" height="340" as="geometry" />
        </mxCell>
        <mxCell id="XM-I5mUfjcm3TLjFvyeR-4" value="" style="html=1;points=[];perimeter=orthogonalPerimeter;rounded=0;shadow=0;comic=0;labelBackgroundColor=none;strokeWidth=1;fontFamily=Verdana;fontSize=12;align=center;" vertex="1" parent="XM-I5mUfjcm3TLjFvyeR-3">
          <mxGeometry x="45" y="103" width="10" height="167" as="geometry" />
        </mxCell>
        <mxCell id="XM-I5mUfjcm3TLjFvyeR-9" value=":审核员" style="shape=umlLifeline;perimeter=lifelinePerimeter;whiteSpace=wrap;html=1;container=1;collapsible=0;recursiveResize=0;outlineConnect=0;rounded=1;shadow=0;comic=0;labelBackgroundColor=none;strokeWidth=1;fontFamily=Verdana;fontSize=12;align=center;" vertex="1" parent="1">
          <mxGeometry x="177" y="207" width="100" height="340" as="geometry" />
        </mxCell>
        <mxCell id="XM-I5mUfjcm3TLjFvyeR-10" value="" style="html=1;points=[];perimeter=orthogonalPerimeter;rounded=0;shadow=0;comic=0;labelBackgroundColor=none;strokeWidth=1;fontFamily=Verdana;fontSize=12;align=center;" vertex="1" parent="XM-I5mUfjcm3TLjFvyeR-9">
          <mxGeometry x="45" y="100" width="10" height="68" as="geometry" />
        </mxCell>
        <mxCell id="XM-I5mUfjcm3TLjFvyeR-11" value="" style="html=1;verticalAlign=bottom;endArrow=block;entryX=-0.18;entryY=0.041;labelBackgroundColor=none;fontFamily=Verdana;fontSize=12;edgeStyle=elbowEdgeStyle;elbow=vertical;entryDx=0;entryDy=0;entryPerimeter=0;" edge="1" parent="1" source="XM-I5mUfjcm3TLjFvyeR-10" target="XM-I5mUfjcm3TLjFvyeR-4">
          <mxGeometry x="-0.0308" y="-57" relative="1" as="geometry">
            <mxPoint x="324" y="317" as="sourcePoint" />
            <mxPoint as="offset" />
          </mxGeometry>
        </mxCell>
        <mxCell id="XM-I5mUfjcm3TLjFvyeR-12" value="&lt;font face=&quot;verdana&quot;&gt;&lt;span style=&quot;background-color: rgb(248 , 249 , 250)&quot;&gt;查看违规列表&lt;/span&gt;&lt;/font&gt;" style="edgeLabel;html=1;align=center;verticalAlign=middle;resizable=0;points=[];" vertex="1" connectable="0" parent="XM-I5mUfjcm3TLjFvyeR-11">
          <mxGeometry x="-0.1846" y="-2" relative="1" as="geometry">
            <mxPoint x="18" y="-2" as="offset" />
          </mxGeometry>
        </mxCell>
        <mxCell id="XM-I5mUfjcm3TLjFvyeR-16" style="edgeStyle=orthogonalEdgeStyle;rounded=0;orthogonalLoop=1;jettySize=auto;html=1;entryX=1.21;entryY=0.818;entryDx=0;entryDy=0;entryPerimeter=0;" edge="1" parent="1" source="XM-I5mUfjcm3TLjFvyeR-4" target="XM-I5mUfjcm3TLjFvyeR-2">
          <mxGeometry relative="1" as="geometry">
            <Array as="points">
              <mxPoint x="518" y="473" />
              <mxPoint x="518" y="473" />
            </Array>
          </mxGeometry>
        </mxCell>
        <mxCell id="XM-I5mUfjcm3TLjFvyeR-17" value="展示查询结果" style="edgeLabel;html=1;align=center;verticalAlign=middle;resizable=0;points=[];" vertex="1" connectable="0" parent="XM-I5mUfjcm3TLjFvyeR-16">
          <mxGeometry x="0.194" relative="1" as="geometry">
            <mxPoint x="14" y="-2" as="offset" />
          </mxGeometry>
        </mxCell>
      </root>
    </mxGraphModel>
  </diagram>
</mxfile>
